<?xml version="1.0" encoding="UTF-8"?>
<svg width="355px" height="187px" viewBox="0 0 355 187" version="1.1" xmlns="http://www.w3.org/2000/svg" xmlns:xlink="http://www.w3.org/1999/xlink">
    <!-- Generator: Sketch 57 (83077) - https://sketch.com -->
    <title>Logo</title>
    <desc>Created with Sketch.</desc>
    <g id="Symbols" stroke="none" stroke-width="1" fill="none" fill-rule="evenodd">
        <g id="Logo" transform="translate(-29.000000, -39.000000)">
            <g>
                <rect id="Rectangle" fill-opacity="0" fill="#061B38" x="0" y="0" width="420" height="259"></rect>
                <path d="M169.333504,150.229002 C169.333504,164.509074 166.031287,177.360946 159.426754,188.785003 C152.822221,200.209061 143.599813,209.133972 131.759253,215.560004 C119.918694,221.986036 106.442078,225.199004 91.329002,225.199004 C78.7149385,225.199004 67.737298,222.878528 58.395751,218.237504 C49.0542041,213.596481 41.8547759,207.111046 36.7972504,198.781004 C31.739725,190.450962 29.2110002,180.931057 29.2110002,170.221003 C29.2110002,168.046612 29.2875635,165.905334 29.4406903,163.797168 C30.166499,172.304635 32.6188319,179.998902 36.7972504,186.881003 C41.8547759,195.211045 49.0542041,201.696481 58.395751,206.337504 C67.737298,210.978527 78.7149385,213.299004 91.329002,213.299004 C106.442078,213.299004 119.918694,210.086036 131.759253,203.660004 C143.599813,197.233971 152.822221,188.30906 159.426754,176.885003 C165.026108,167.199634 168.251847,156.487991 169.104032,144.749839 C169.257016,146.539645 169.333504,148.366324 169.333504,150.229002 Z M104.181002,112.625001 C113.463049,112.625001 120.692227,115.153726 125.868753,120.211251 C131.045279,125.268777 133.633503,132.02196 133.633503,140.471002 C133.633503,142.707129 133.50714,144.889426 133.254412,147.017896 C132.362864,141.019409 129.901079,136.050881 125.868753,132.111252 C120.692227,127.053726 113.463049,124.525002 104.181002,124.525002 C96.3269628,124.525002 89.4250317,126.488482 83.4750018,130.415502 C77.5249718,134.342521 72.9435175,139.608219 69.7305014,146.212752 C67.4183295,150.96555 65.9381204,156.07264 65.2898558,161.534104 C65.0375534,159.832638 64.9110012,158.04728 64.9110012,156.179002 C64.9110012,148.205962 66.5174852,140.917285 69.7305014,134.312752 C72.9435175,127.708219 77.5249718,122.442521 83.4750018,118.515501 C89.4250317,114.588482 96.3269628,112.625001 104.181002,112.625001 Z" id="Combined-Shape" fill="#E32700"></path>
                <path d="M110.429659,69 L110.387659,47.58 L99.7616593,65.43 L97.8296593,65.43 L87.2036593,47.706 L87.2036593,69 L83.1716593,69 L83.1716593,39.6 L86.6156593,39.6 L98.8796593,60.264 L110.975659,39.6 L114.419659,39.6 L114.461659,69 Z M189.76533,61.65 L174.14133,61.65 L170.90733,69 L166.58133,69 L179.89533,39.6 L184.05333,39.6 L197.40933,69 L192.99933,69 Z M188.29533,58.29 L181.95333,43.884 L175.61133,58.29 Z M269.185,69 L262.843,59.97 C262.058996,60.0260003 261.443002,60.054 260.995,60.054 L253.729,60.054 L253.729,69 L249.529,69 L249.529,39.6 L260.995,39.6 C264.803019,39.6 267.798989,40.5099909 269.983,42.33 C272.167011,44.1500091 273.259,46.655984 273.259,49.848 C273.259,52.1160113 272.699006,54.047992 271.579,55.644 C270.458994,57.240008 268.86301,58.4019964 266.791,59.13 L273.763,69 Z M260.869,56.484 C263.529013,56.484 265.558993,55.9100057 266.959,54.762 C268.359007,53.6139943 269.059,51.9760106 269.059,49.848 C269.059,47.7199894 268.359007,46.0890057 266.959,44.955 C265.558993,43.8209943 263.529013,43.254 260.869,43.254 L253.729,43.254 L253.729,56.484 Z M336.38267,69.336 C334.170659,69.336 332.035681,68.9930034 329.97767,68.307 C327.91966,67.6209966 326.302676,66.7320055 325.12667,65.64 L326.68067,62.364 C327.800676,63.372005 329.235662,64.1909968 330.98567,64.821 C332.735679,65.4510031 334.534661,65.766 336.38267,65.766 C338.818683,65.766 340.638664,65.3530041 341.84267,64.527 C343.046676,63.7009959 343.64867,62.6020069 343.64867,61.23 C343.64867,60.221995 343.319674,59.4030031 342.66167,58.773 C342.003667,58.1429968 341.191675,57.6600017 340.22567,57.324 C339.259666,56.9879983 337.894679,56.6100021 336.13067,56.19 C333.918659,55.6579973 332.133677,55.1260027 330.77567,54.594 C329.417664,54.0619973 328.255675,53.2430055 327.28967,52.137 C326.323666,51.0309945 325.84067,49.5400094 325.84067,47.664 C325.84067,46.0959922 326.253666,44.6820063 327.07967,43.422 C327.905674,42.1619937 329.158662,41.1540038 330.83867,40.398 C332.518679,39.6419962 334.604658,39.264 337.09667,39.264 C338.832679,39.264 340.540662,39.4879978 342.22067,39.936 C343.900679,40.3840022 345.342664,41.0279958 346.54667,41.868 L345.16067,45.228 C343.928664,44.4439961 342.612677,43.849002 341.21267,43.443 C339.812663,43.036998 338.440677,42.834 337.09667,42.834 C334.716658,42.834 332.931676,43.2679957 331.74167,44.136 C330.551664,45.0040043 329.95667,46.1239931 329.95667,47.496 C329.95667,48.504005 330.292667,49.3229968 330.96467,49.953 C331.636674,50.5830031 332.469665,51.0729982 333.46367,51.423 C334.457675,51.7730017 335.808662,52.143998 337.51667,52.536 C339.728681,53.0680027 341.506664,53.5999973 342.85067,54.132 C344.194677,54.6640027 345.349666,55.4759945 346.31567,56.568 C347.281675,57.6600055 347.76467,59.1299908 347.76467,60.978 C347.76467,62.5180077 347.344675,63.9249936 346.50467,65.199 C345.664666,66.4730064 344.390679,67.4809963 342.68267,68.223 C340.974662,68.9650037 338.874683,69.336 336.38267,69.336 Z" id="Combined-Shape" fill="#F1F1F1"></path>
                <path d="M240.138506,116.909001 C251.800565,116.909001 261.022973,120.300468 267.806007,127.083502 C274.589041,133.866536 277.980507,143.624438 277.980507,156.357502 L277.980507,210.800004 L269.055507,210.800004 L269.055507,157.071502 C269.055507,146.59945 266.407783,138.626529 261.112257,133.152502 C255.81673,127.678474 248.409054,124.941502 238.889006,124.941502 C227.940951,124.941502 219.313537,128.213969 213.006505,134.759002 C206.699474,141.304035 203.546005,150.109947 203.546005,161.177003 L203.546005,210.800004 L194.621005,210.800004 L194.621005,117.623001 L203.189005,117.623001 L203.189005,137.793502 C206.402021,131.248469 211.191724,126.13152 217.558256,122.442502 C223.924788,118.753483 231.451462,116.909001 240.138506,116.909001 Z M382.988091,166.353503 L302.841589,166.353503 C303.07959,173.612539 304.924072,180.068225 308.375089,185.720753 C311.826106,191.373282 316.49681,195.746488 322.38734,198.840504 C328.277869,201.934519 334.912053,203.481504 342.29009,203.481504 C348.359121,203.481504 353.981815,202.380765 359.158341,200.179254 C364.334867,197.977743 368.648574,194.735025 372.099591,190.451003 L377.276091,196.341504 C373.230071,201.220528 368.142871,204.968991 362.014341,207.587004 C355.88581,210.205017 349.251626,211.514004 342.11159,211.514004 C332.829543,211.514004 324.559126,209.491024 317.300089,205.445004 C310.041053,201.398984 304.35886,195.806039 300.253339,188.666003 C296.147818,181.525967 294.095089,173.374549 294.095089,164.211503 C294.095089,155.167457 296.028819,147.045788 299.896339,139.846252 C303.763858,132.646716 309.089055,127.024022 315.872089,122.978002 C322.655123,118.931981 330.271048,116.909001 338.72009,116.909001 C347.169132,116.909001 354.755307,118.902231 361.478841,122.888752 C368.202374,126.875272 373.497822,132.438466 377.365341,139.578502 C381.232861,146.718538 383.166591,154.810457 383.166591,163.854503 Z M338.72009,124.763002 C332.175057,124.763002 326.284616,126.220737 321.048589,129.136252 C315.812563,132.051766 311.617855,136.157225 308.464339,141.452752 C305.310823,146.748279 303.496091,152.727969 303.020089,159.392003 L374.420091,159.392003 C374.063089,152.727969 372.278107,146.778028 369.065091,141.542002 C365.852075,136.305976 361.627617,132.200517 356.39159,129.225502 C351.155564,126.250487 345.265123,124.763002 338.72009,124.763002 Z" id="Combined-Shape" fill="#E32700"></path>
            </g>
        </g>
    </g>
</svg>