<?xml version="1.0" encoding="UTF-8"?>
<svg width="214px" height="214px" viewBox="0 0 214 214" version="1.1" xmlns="http://www.w3.org/2000/svg" xmlns:xlink="http://www.w3.org/1999/xlink">
    <!-- Generator: Sketch 57 (83077) - https://sketch.com -->
    <title>Group 8</title>
    <desc>Created with Sketch.</desc>
    <g id="Page-1" stroke="none" stroke-width="1" fill="none" fill-rule="evenodd">
        <g transform="translate(-1058.000000, -1866.000000)" id="Group-8">
            <g transform="translate(1165.000000, 1973.000000) rotate(24.000000) translate(-1165.000000, -1973.000000) translate(1049.000000, 1857.000000)">
                <circle id="Oval" fill="#FFCF02" cx="116" cy="116" r="41"></circle>
                <g id="Group-6" fill="#FFCF02">
                    <rect id="Rectangle" x="113.5" y="0" width="5" height="63" rx="2.5"></rect>
                    <rect id="Rectangle" x="113.5" y="169" width="5" height="63" rx="2.5"></rect>
                    <rect id="Rectangle" transform="translate(200.500000, 116.000000) rotate(-270.000000) translate(-200.500000, -116.000000) " x="198" y="84.5" width="5" height="63" rx="2.5"></rect>
                    <rect id="Rectangle" transform="translate(31.500000, 116.000000) rotate(-270.000000) translate(-31.500000, -116.000000) " x="29" y="84.5" width="5" height="63" rx="2.5"></rect>
                </g>
                <g id="Group-7" transform="translate(43.000000, 43.000000)" fill="#FF9300">
                    <rect id="Rectangle" transform="translate(19.500000, 19.000000) rotate(-225.000000) translate(-19.500000, -19.000000) " x="17" y="-5" width="5" height="48" rx="2.5"></rect>
                    <rect id="Rectangle" transform="translate(127.947222, 127.447222) rotate(-225.000000) translate(-127.947222, -127.447222) " x="125.447222" y="103.447222" width="5" height="48" rx="2.5"></rect>
                    <rect id="Rectangle" transform="translate(19.500000, 127.447222) rotate(-315.000000) translate(-19.500000, -127.447222) " x="17" y="103.447222" width="5" height="48" rx="2.5"></rect>
                    <rect id="Rectangle" transform="translate(127.947222, 19.000000) rotate(-315.000000) translate(-127.947222, -19.000000) " x="125.447222" y="-5" width="5" height="48" rx="2.5"></rect>
                </g>
                <rect id="Rectangle" fill="#FF6800" transform="translate(53.782712, 142.079598) rotate(-293.000000) translate(-53.782712, -142.079598) " x="51.2827121" y="127.579598" width="5" height="29" rx="2.5"></rect>
                <rect id="Rectangle" fill="#FF6800" transform="translate(177.849306, 89.552420) rotate(-293.000000) translate(-177.849306, -89.552420) " x="175.349306" y="75.0524202" width="5" height="29" rx="2.5"></rect>
                <rect id="Rectangle" fill="#FF6800" transform="translate(89.552420, 53.782712) rotate(-203.000000) translate(-89.552420, -53.782712) " x="87.0524202" y="39.2827121" width="5" height="29" rx="2.5"></rect>
                <rect id="Rectangle" fill="#FF6800" transform="translate(142.079598, 177.849306) rotate(-203.000000) translate(-142.079598, -177.849306) " x="139.579598" y="163.349306" width="5" height="29" rx="2.5"></rect>
                <rect id="Rectangle" fill="#FF6800" transform="translate(53.380682, 90.523006) rotate(-248.000000) translate(-53.380682, -90.523006) " x="50.8806824" y="76.0230059" width="5" height="29" rx="2.5"></rect>
                <rect id="Rectangle" fill="#FF6800" transform="translate(178.251336, 141.109012) rotate(-248.000000) translate(-178.251336, -141.109012) " x="175.751336" y="126.609012" width="5" height="29" rx="2.5"></rect>
                <rect id="Rectangle" fill="#FF6800" transform="translate(141.109012, 53.380682) rotate(-158.000000) translate(-141.109012, -53.380682) " x="138.609012" y="38.8806824" width="5" height="29" rx="2.5"></rect>
                <rect id="Rectangle" fill="#FF6800" transform="translate(90.523006, 178.251336) rotate(-158.000000) translate(-90.523006, -178.251336) " x="88.0230059" y="163.751336" width="5" height="29" rx="2.5"></rect>
            </g>
        </g>
    </g>
</svg>